<svg xmlns="http://www.w3.org/2000/svg" viewBox="0 0 230.7 136"><defs><style>.cls-1{fill:#d55c00;}</style></defs><g id="Layer_2" data-name="Layer 2"><g id="Layer_1-2" data-name="Layer 1"><g id="Layer_2-2" data-name="Layer 2"><g id="Layer_1-2-2" data-name="Layer 1-2"><path class="cls-1" d="M180.8,65.69a40.54,40.54,0,0,1-2.55,13.2l-7.18-7.38a4.25,4.25,0,0,0-.52-.27l.27-.25-17-18,.93,30.72a2.49,2.49,0,0,0,.68,3c1.56,1.45,2.84,2.91,4.4,4.51l3.08,3.31A29.64,29.64,0,0,1,151,97.12a27.77,27.77,0,0,1-23.88-13.93,34.68,34.68,0,0,1-4.86-18.26c.14-10.75,4.74-20.76,12.93-26.44a28.11,28.11,0,0,1,16.63-4.86C170.81,33.87,181,49,180.8,65.69Z"/><path class="cls-1" d="M230.7,68a67.7,67.7,0,0,1-18.25,46.34l-9.3-9.6-.37-.37-.2-.21L194.4,95.6A61.26,61.26,0,0,0,203.11,66c.36-28.1-20.44-53.06-51.06-53.45a56.42,56.42,0,0,0-12.7,1.24C115,19.05,100.08,40.49,99.77,64.64c-.24,18.12,8.14,35.05,22.4,44.9a50.81,50.81,0,0,0,28.51,8.85,54,54,0,0,0,28.21-7.66l6.92,7h0l9.39,10A67.63,67.63,0,0,1,162.72,136H55.29a4.88,4.88,0,0,1-.85-.07,6.17,6.17,0,0,1-5.09-6.18,6.43,6.43,0,0,1,1.74-4.41,5.86,5.86,0,0,1,2.72-1.63,5.68,5.68,0,0,1,1.48-.2h7.56a5.8,5.8,0,0,0,4.21-1.85,6.33,6.33,0,0,0,1.75-4.4,6.11,6.11,0,0,0-6-6.25H39.44a6.12,6.12,0,0,1-5.94-6.25,6.44,6.44,0,0,1,1.75-4.42,5.79,5.79,0,0,1,4.19-1.83H54.57a5.83,5.83,0,0,0,4.21-1.84,6.4,6.4,0,0,0,1.73-4.41A6.11,6.11,0,0,0,54.57,86H50.25A5.64,5.64,0,0,1,47,85a6.32,6.32,0,0,1-2.71-5.22A6.49,6.49,0,0,1,46,75.36a5.81,5.81,0,0,1,4.2-1.83H64.67a5.76,5.76,0,0,0,4.19-1.85,6.41,6.41,0,0,0-.25-9.06l-.09-.08H48.45A5.73,5.73,0,0,1,44.58,61a6.46,6.46,0,0,1-.35-9.13l0,0A5.87,5.87,0,0,1,48.45,50H60a5.82,5.82,0,0,0,4.21-1.83A6.48,6.48,0,0,0,66,43.75a6.12,6.12,0,0,0-6-6.25H21.79a6.11,6.11,0,0,1-5.94-6.24,6.5,6.5,0,0,1,1.74-4.43A5.81,5.81,0,0,1,21.79,25H32.6a5.81,5.81,0,0,0,4.2-1.83,6.4,6.4,0,0,0,1.75-4.43,6.11,6.11,0,0,0-5.95-6.25H5.94A6.11,6.11,0,0,1,0,6.25,6.48,6.48,0,0,1,1.74,1.83,5.81,5.81,0,0,1,5.94,0H162.72A68,68,0,0,1,230.7,68Z"/></g></g></g></g></svg>