<svg xmlns="http://www.w3.org/2000/svg" viewBox="0 0 631.83 98.68"><defs><style>.cls-1{fill:#d55c00;}</style></defs><g id="Layer_2" data-name="Layer 2"><g id="Layer_1-2" data-name="Layer 1"><g id="Layer_2-2" data-name="Layer 2"><g id="Layer_1-2-2" data-name="Layer 1-2"><path class="cls-1" d="M45,88.49l-4.31,2.43C29.1,97.53,15.15,96.65,8,93.68,4.35,92.14-.43,88.89,0,83c1.6-13.35,6.41-47.09,7-50.51s1.57-4.06,3.41-4.06c6.47,0,13,0,19.43.16,2.91.09,3.85,1.54,3.23,4.66Q30,49.2,27.4,65.25c-.53,3.38-.19,7.12,3.21,9.12,3.83,2.27,10,1.13,13-1.73C49.31,67,50.25,60.7,52,51.32c1.62-8.7,2.06-13.21,3.22-19.78.64-3.61,3-3.5,4.68-3.5,6.12,0,12.5,0,18.69.28,2.16.1,3.38,1.07,2.88,3.57-1.54,7.65-8.7,46.28-10.59,58.93-.46,3-2.1,4.13-5,4.08q-7.5-.11-15,0C47.47,94.89,47.31,94.77,45,88.49Z"/><path class="cls-1" d="M157.44,96.83c-13.39,0-25.27-6.51-27.66-22.87-1.28-8.73-.41-19.31,3.47-27.22,4.93-10,12.72-16.45,24.33-19.15,10.33-2.45,20.64-1.45,30.84.47,3.1.59,2.88,2.35,3,3.7a84.8,84.8,0,0,1-.24,11.71c-.22,3.69-1.91,4.76-5.72,3.86-4.5-1.07-9.27-3.16-16.66-1.72-6.28,1.23-12.86,5.16-14.09,14.58C153,73.05,158,79.19,167,77.87c4.88-.73,9.95-1.45,14.05-2,3-.39,4.23.8,3.47,3.77a84.13,84.13,0,0,1-3.89,12.5,6.67,6.67,0,0,1-4.6,3.2A123.46,123.46,0,0,1,157.44,96.83Z"/><path d="M412.56,14.76c.35-2.52.71-5.14,1.08-7.7a6,6,0,0,0-1-5A5.45,5.45,0,0,0,408.31.41h-1.2c-2.15.1-4.38.19-6.54.19h-2c-3.74,0-5.86,2-6.31,6-.32,2.82-.57,5.64-.8,8.37-.43,4.88-.87,9.93-1.74,15.1-1.24,6.32-8.59,19.68-21.82,39.7l-.27.42a11.77,11.77,0,0,1-1.23,1.67,14.53,14.53,0,0,1-.75-2.75v-.2c-.5-2.47-3.6-19.59-4.6-25.45-.68-4,2.14-20.24,3.83-30,.55-3.21,1-6,1.29-7.72a4.35,4.35,0,0,0-.88-3.63,5,5,0,0,0-4-1.53H351.7c-3.33,0-5.59,1.82-6,4.87-.15,1-.33,2.47-.57,4.32-1,8.16-3.41,27.25-6.59,31.63-1.5,2.07-5.16,9.77-8.69,17.23-2.25,4.74-4.38,9.22-5.59,11.48a13.25,13.25,0,0,1-1.31,2,6.36,6.36,0,0,1-.95-1.78c-.17-.53-.42-1.27-.71-2.18C319,61.35,312.2,40.55,313.2,34c.42-2.79,4.22-20,5.7-26.17.55-2.31.34-4-.65-5.28S315.71.71,313.52.71h-8.25c-5.19,0-6.12,1.45-7.08,7.25v.18c-.08,1.15-2.81,17-4.65,27.45v.3c.06,9.08,6.57,28.76,10.87,41.79,1.47,4.45,2.63,8,3,9.46,1.79,7.37,3.14,9.24,11.42,9.24h.52c5.14,0,8,0,10.39-4.23h0c1.45-3,2.62-5.12,4-7.55L335.16,82c2.34-4.32,8.43-15.07,11.6-20.65.28,1.13.54,2.2.64,2.69.75,3.77,1.47,7.62,2.16,11.34,1,5.45,2.07,11.08,3.26,16.61.46,2.18,3.27,4.73,9.66,4.73,8.14,0,10-2.33,12.88-6.78,0,0,25.36-39.14,29.92-46.53,1.77-2.86,3.71-6.21,4.38-9.78C410.86,27.3,411.73,20.93,412.56,14.76Z"/><path d="M555.34,54.89c1.8-6.11,3.16-12.61-1.61-19-3.89-5.25-9.52-7.75-17.21-7.75a25.08,25.08,0,0,0-3,.12c-6.7.51-17.22,5.33-24,9.43,1.67-8.53,5.13-24.71,6.4-30.22A6.9,6.9,0,0,0,515,1.76,4.69,4.69,0,0,0,511.12,0h0c-2,0-3.72.18-5.71.36l-3.09.27c-4,.3-6.59,1.5-7.13,6.55-.06.47-.56,3.66-1.21,7.69-1.4,8.75-3.75,23.4-5.1,33.3-.49,3.16-1.06,6.51-1.67,10a335.52,335.52,0,0,0-4.53,33.28,4.65,4.65,0,0,0,.65,3.8c1,1.26,2.72,1.39,4.36,1.42h7.7c3.32-.06,5.49-.83,6.08-4.51v-.11c.11-1.26.23-2.72.35-4.22.14-1.76.29-3.57.44-5.2.35-3.86,1.34-3.86,1.76-3.86h13.06s.59,0,1.59,1.85a33.09,33.09,0,0,1,2,4.61l.46,1.25c.19.47.36.92.53,1.35,2.86,7.32,3.75,8.87,12,8.87h2.8a19.4,19.4,0,0,0,2.13-.09c.85-.09,1.86-.11,2.75-.12s3.69,0,4.28-2.26a6.48,6.48,0,0,0-.87-4.43c-2-3.76-6.11-11.87-7.74-15.08l1.1-.65C546.47,69.23,552.62,64.14,555.34,54.89Zm-44,11.46h0c-4.21,0-5.45-1-5.81-1.62C503,60.46,508,55.87,510.25,54.1a60.1,60.1,0,0,1,14-8.18,13.72,13.72,0,0,1,5.13-1.06,11.72,11.72,0,0,1,4.74,1,5.31,5.31,0,0,1,3.3,4.16c.52,3-1,6.59-4,9.35-5.57,5.11-12.19,6.16-18,6.74-.8.08-2.4.24-4.09.24Z"/><path d="M482.75,34.53c-1.12-2.21-3.8-3.2-6.54-3.93-1.12-.3-2.3-.67-3.19-.89-3.46-.84-4.66,1.93-6.07,5.37-.27.65-.49,1.35-.72,2-.62-.64-1.39-1.39-2.28-2.16-5-4.34-10.63-6.76-16.32-7h-1.75c-10,0-18.46,3.67-25.9,11.23a33.42,33.42,0,0,0-3.37,4.21c-.38.54-.77,1.08-1.16,1.6-5.21,6.93-8.71,18.85-8.71,25.64,0,16.51,9.7,28,23.57,28,13.2,0,21.6-4.65,25.54-7.54.11.42.23.92.38,1.52,1,4.19,1.66,4.67,6.26,4.67,1.6,0,6.93-.14,8.68-1.92,1-1,1.34-3.23,2.67-13.3.69-5.23,1.55-11.74,2.68-18.24,1.93-11.1,4.11-18,5.6-21.83C483,39.52,483.87,36.75,482.75,34.53ZM444.62,80.91a13.66,13.66,0,0,1-4.61.78,18.1,18.1,0,0,1-10-3.12c-4.42-4-5.48-8.31-3.77-15.32a26.84,26.84,0,0,1,11.21-16.11,13.86,13.86,0,0,1,8.19-2.65,15.46,15.46,0,0,1,6.28,1.36c5.18,2.29,7.89,7,7.64,13.27C458.64,65.61,455.47,76.94,444.62,80.91Z"/><path d="M631.28,34.68c-1.12-2.22-3.8-3.2-6.54-3.94-1.12-.3-2.26-.57-3.16-.76-4.37-1-4.45,1.18-6.11,5.25-.26.64-.48,1.34-.71,2-.63-.65-1.39-1.39-2.28-2.17-5-4.34-10.63-6.75-16.32-7h-1.75c-10,0-18.47,3.68-25.91,11.24a34.08,34.08,0,0,0-3.36,4.21L564,45.05c-5.21,6.92-8.71,18.84-8.71,25.63,0,16.51,9.69,28,23.57,28,13.2,0,21.6-4.65,25.54-7.54.11.43.23.93.37,1.53,1,4.19,1.67,4.67,6.27,4.67,1.59,0,6.92-.14,8.68-1.92,1-1,1.34-3.23,2.67-13.31.69-5.22,1.55-11.73,2.68-18.24,1.93-11.1,4.11-18,5.6-21.82C631.59,39.66,632.4,36.89,631.28,34.68ZM593.15,81.05a13.66,13.66,0,0,1-4.61.78,18.09,18.09,0,0,1-10-3.11c-4.42-4-5.48-8.31-3.78-15.33A26.89,26.89,0,0,1,586,47.32a13.8,13.8,0,0,1,8.19-2.66A15.27,15.27,0,0,1,600.49,46c5.18,2.28,7.89,7,7.64,13.26C607.17,65.75,604,77.08,593.15,81.05Z"/><path class="cls-1" d="M214.63,95.54H199.76c-2.52,0-4-1.22-3.47-3.9,2.6-13,12.65-78.5,13.22-82.15s2.34-4.18,5.24-4.24c5.81-.1,11.63-.26,17.45-.44,2.63-.08,4.1,1.53,3.62,4.15-3.23,17.59-6.64,35.16-9.66,52.79-1.48,8.66-2.25,17.43-3.37,26.16C221.89,95,221,95.53,214.63,95.54Z"/><path class="cls-1" d="M275.44,29a3.17,3.17,0,0,1,2.4,1.66c.2.62-.8,1.72-1.44,2.46C269.91,40.75,264,47.62,257,56.14a4.39,4.39,0,0,0-1.21,2.55c0,1.07.68,2,1.25,3.22s9.17,18.85,13.83,28.35c1.6,3.27,1,4.74-2.54,4.79-7,.1-13.91,0-20.84-.42-4.28-.26-4.84-4.39-6.11-7.41-2.38-5.7-9.23-22.24-10.5-25.5s-.66-5.19,1.41-7.72c5.47-6.68,11.61-15.37,15.77-20.55s5.44-5.18,9.82-5C260.77,28.52,271.24,28.72,275.44,29Z"/><path class="cls-1" d="M118.66,28c3.1,0,4.32,1.53,3.83,4.34-.73,4.19-8.48,51.36-9.61,59.3-.38,2.66-2,3.71-4.58,3.69-6.22,0-12.43,0-18.65-.1-3.49-.05-4.45-1.63-3.76-5,1.52-7.36,7.93-46,9.83-57.83A4.77,4.77,0,0,1,100.44,28C102,27.94,114,28,118.66,28Z"/><path class="cls-1" d="M122,3.6c3.34-.05,4.09,1.54,3.54,4.47-.78,4.19-1.25,6.41-1.72,8.76-.38,1.84-1.58,2.57-5,2.66H103.11c-5,0-5.38-.81-4.86-4.33a77.32,77.32,0,0,1,1.69-8,4.61,4.61,0,0,1,4.92-3.6C108.4,3.6,119.27,3.63,122,3.6Z"/></g></g></g></g></svg>