<svg id="Layer_1" data-name="Layer 1" xmlns="http://www.w3.org/2000/svg" viewBox="0 0 869.81 136"><defs><style>.cls-1{fill:#d55c00;}.cls-2{fill:#fff;}</style></defs><g id="Layer_2" data-name="Layer 2"><g id="Layer_1-2" data-name="Layer 1-2"><path class="cls-1" d="M180.8,204.69a40.54,40.54,0,0,1-2.55,13.2l-7.18-7.38a5.12,5.12,0,0,0-.52-.27l.27-.25-17-18,.93,30.72a2.49,2.49,0,0,0,.68,3c1.56,1.45,2.84,2.91,4.4,4.51l3.08,3.31A29.64,29.64,0,0,1,151,236.12a27.77,27.77,0,0,1-23.88-13.93,34.68,34.68,0,0,1-4.86-18.26c.14-10.75,4.74-20.76,12.93-26.44a28.11,28.11,0,0,1,16.63-4.86C170.81,172.87,181,188,180.8,204.69Z" transform="translate(0 -139)"/><path class="cls-1" d="M230.7,207a67.7,67.7,0,0,1-18.25,46.34l-9.3-9.6-.37-.37-.2-.21-8.18-8.56a61.26,61.26,0,0,0,8.71-29.6c.36-28.1-20.44-53.06-51.06-53.45a56.42,56.42,0,0,0-12.7,1.24c-24.35,5.26-39.27,26.7-39.58,50.85-.24,18.12,8.14,35.05,22.4,44.9a50.79,50.79,0,0,0,28.51,8.85,54,54,0,0,0,28.21-7.66l6.92,7h0l9.39,10A67.63,67.63,0,0,1,162.72,275H55.29a4.88,4.88,0,0,1-.85-.07,6.16,6.16,0,0,1-5.09-6.18,6.43,6.43,0,0,1,1.74-4.41,5.86,5.86,0,0,1,2.72-1.63,5.68,5.68,0,0,1,1.48-.2h7.56a5.8,5.8,0,0,0,4.21-1.85,6.33,6.33,0,0,0,1.75-4.4,6.11,6.11,0,0,0-6-6.25H39.44a6.12,6.12,0,0,1-5.94-6.25,6.44,6.44,0,0,1,1.75-4.42,5.79,5.79,0,0,1,4.19-1.83H54.57a5.83,5.83,0,0,0,4.21-1.84,6.44,6.44,0,0,0,1.73-4.41A6.12,6.12,0,0,0,54.57,225H50.25A5.64,5.64,0,0,1,47,224a6.32,6.32,0,0,1-2.71-5.22A6.44,6.44,0,0,1,46,214.36a5.81,5.81,0,0,1,4.2-1.83H64.67a5.76,5.76,0,0,0,4.19-1.85,6.4,6.4,0,0,0-.26-9.06l-.08-.08H48.45A5.73,5.73,0,0,1,44.58,200a6.46,6.46,0,0,1-.35-9.13l0,0a5.87,5.87,0,0,1,4.2-1.85H60a5.84,5.84,0,0,0,4.21-1.83A6.48,6.48,0,0,0,66,182.75a6.12,6.12,0,0,0-6-6.25H21.79a6.11,6.11,0,0,1-5.94-6.24,6.5,6.5,0,0,1,1.74-4.43,5.81,5.81,0,0,1,4.2-1.83H32.6a5.81,5.81,0,0,0,4.2-1.83,6.4,6.4,0,0,0,1.75-4.43,6.12,6.12,0,0,0-5.95-6.25H5.94A6.11,6.11,0,0,1,0,145.25a6.43,6.43,0,0,1,1.74-4.42A5.81,5.81,0,0,1,5.94,139H162.72A68,68,0,0,1,230.7,207Z" transform="translate(0 -139)"/><path class="cls-1" d="M283,247.35l-4.31,2.43c-11.61,6.61-25.56,5.73-32.68,2.76-3.68-1.54-8.46-4.79-8-10.68,1.6-13.35,6.41-47.09,7-50.51s1.57-4.06,3.41-4.06c6.47,0,13,0,19.43.16,2.91.09,3.85,1.54,3.23,4.66q-3.15,15.94-5.7,32c-.53,3.38-.19,7.12,3.21,9.12,3.83,2.27,10,1.13,13-1.73,5.7-5.62,6.64-11.94,8.38-21.32,1.62-8.7,2.06-13.21,3.22-19.78.64-3.61,3-3.5,4.68-3.5,6.12,0,12.5,0,18.69.28,2.16.1,3.38,1.07,2.88,3.57-1.54,7.65-8.7,46.28-10.59,58.93-.46,3-2.1,4.13-5,4.08q-7.5-.1-15,0C285.45,253.75,285.29,253.63,283,247.35Z" transform="translate(0 -139)"/><path class="cls-1" d="M395.42,255.69c-13.39,0-25.27-6.51-27.66-22.87-1.28-8.73-.41-19.31,3.47-27.22,4.93-10,12.72-16.45,24.33-19.15,10.33-2.45,20.64-1.45,30.84.47,3.1.59,2.88,2.35,3,3.7a88,88,0,0,1-.24,11.71c-.22,3.69-1.91,4.76-5.72,3.86-4.5-1.07-9.27-3.16-16.66-1.72-6.28,1.23-12.86,5.16-14.09,14.58-1.67,12.86,3.24,19,12.32,17.68,4.88-.73,9.95-1.45,14.05-2,3-.39,4.23.8,3.47,3.77a84.13,84.13,0,0,1-3.89,12.5,6.67,6.67,0,0,1-4.6,3.2A122.18,122.18,0,0,1,395.42,255.69Z" transform="translate(0 -139)"/><path class="cls-2" d="M650.54,173.62c.35-2.52.71-5.14,1.08-7.7a6,6,0,0,0-1-5,5.48,5.48,0,0,0-4.33-1.65h-1.2c-2.15.1-4.38.19-6.54.19h-2c-3.74,0-5.86,2-6.31,6-.32,2.82-.57,5.64-.8,8.37-.43,4.88-.87,9.93-1.74,15.1-1.24,6.32-8.59,19.68-21.82,39.7l-.27.42a11.77,11.77,0,0,1-1.23,1.67,14.53,14.53,0,0,1-.75-2.75v-.2c-.5-2.47-3.6-19.59-4.6-25.45-.68-4,2.14-20.24,3.83-30,.55-3.21,1-6,1.29-7.72a4.36,4.36,0,0,0-.88-3.63,5,5,0,0,0-4-1.53h-9.58c-3.33,0-5.59,1.82-6,4.87-.15,1-.33,2.47-.57,4.32-1,8.16-3.41,27.25-6.59,31.63-1.5,2.07-5.16,9.77-8.69,17.23-2.25,4.74-4.38,9.22-5.59,11.48a12.34,12.34,0,0,1-1.31,2,6.36,6.36,0,0,1-.95-1.78c-.17-.53-.42-1.27-.71-2.18-2.25-6.83-9.09-27.63-8.09-34.2.42-2.79,4.22-20,5.7-26.17.55-2.31.34-4-.65-5.28s-2.54-1.82-4.73-1.82h-8.25c-5.19,0-6.12,1.45-7.08,7.25V167c-.08,1.15-2.81,17-4.65,27.45v.3c.06,9.08,6.57,28.76,10.87,41.79,1.47,4.45,2.63,8,3,9.46,1.79,7.37,3.14,9.24,11.42,9.24h.52c5.14,0,8,0,10.39-4.23h0c1.45-3,2.62-5.12,4-7.55l1.42-2.59c2.34-4.32,8.43-15.07,11.6-20.65.28,1.13.54,2.2.64,2.69.75,3.77,1.47,7.62,2.16,11.34,1,5.45,2.07,11.08,3.26,16.61.46,2.18,3.27,4.73,9.66,4.73,8.14,0,10-2.33,12.88-6.78,0,0,25.36-39.14,29.92-46.53,1.77-2.86,3.71-6.21,4.38-9.78C648.84,186.16,649.71,179.79,650.54,173.62Z" transform="translate(0 -139)"/><path class="cls-2" d="M793.32,213.75c1.8-6.11,3.16-12.61-1.61-19-3.89-5.25-9.52-7.75-17.21-7.75a25.08,25.08,0,0,0-3,.12c-6.7.51-17.22,5.33-24,9.43,1.67-8.53,5.13-24.71,6.4-30.22a6.9,6.9,0,0,0-.89-5.71,4.69,4.69,0,0,0-3.91-1.75h0c-2,0-3.72.18-5.71.36l-3.09.27c-4,.3-6.59,1.5-7.13,6.55-.06.47-.56,3.66-1.21,7.69-1.4,8.75-3.75,23.4-5.1,33.3-.49,3.16-1.06,6.51-1.67,10a333,333,0,0,0-4.53,33.28,4.65,4.65,0,0,0,.65,3.8c1,1.26,2.72,1.39,4.36,1.42h7.7c3.32-.06,5.49-.83,6.08-4.51v-.11c.11-1.26.23-2.72.35-4.22.14-1.76.29-3.57.44-5.2.35-3.86,1.34-3.86,1.76-3.86h13.06s.59,0,1.59,1.85a33.61,33.61,0,0,1,2,4.61l.46,1.25c.19.47.36.92.53,1.35,2.86,7.32,3.75,8.87,12,8.87h2.8a19.4,19.4,0,0,0,2.13-.09c.85-.09,1.86-.11,2.75-.12s3.69-.05,4.28-2.26a6.5,6.5,0,0,0-.87-4.43c-2-3.76-6.11-11.87-7.74-15.08l1.1-.65C784.45,228.09,790.6,223,793.32,213.75Zm-44,11.46h0c-4.21,0-5.45-1-5.81-1.62-2.56-4.27,2.44-8.86,4.72-10.63a60.46,60.46,0,0,1,14-8.18,14.13,14.13,0,0,1,5.13-1.06,12.1,12.1,0,0,1,4.74,1,5.32,5.32,0,0,1,3.3,4.16c.52,3-1,6.59-4,9.35-5.57,5.11-12.19,6.16-18,6.74-.8.08-2.4.24-4.09.24Z" transform="translate(0 -139)"/><path class="cls-2" d="M720.73,193.39c-1.12-2.21-3.8-3.2-6.54-3.93-1.12-.3-2.3-.67-3.19-.89-3.46-.84-4.66,1.93-6.07,5.37-.27.65-.49,1.35-.72,2-.62-.64-1.39-1.39-2.28-2.16-5-4.34-10.63-6.76-16.32-7h-1.75c-10,0-18.46,3.67-25.9,11.23a33.25,33.25,0,0,0-3.37,4.21c-.38.54-.77,1.08-1.16,1.6-5.21,6.93-8.71,18.85-8.71,25.64,0,16.51,9.7,28,23.57,28,13.2,0,21.6-4.65,25.54-7.54.11.42.23.92.38,1.52,1,4.19,1.66,4.67,6.26,4.67,1.6,0,6.93-.14,8.68-1.92,1-1,1.34-3.23,2.67-13.3.69-5.23,1.55-11.74,2.68-18.24,1.93-11.1,4.11-18,5.6-21.83C721,198.38,721.85,195.61,720.73,193.39ZM682.6,239.77a13.41,13.41,0,0,1-4.61.78,18,18,0,0,1-10-3.12c-4.42-4-5.48-8.31-3.77-15.32A26.9,26.9,0,0,1,675.43,206a13.92,13.92,0,0,1,8.19-2.65,15.66,15.66,0,0,1,6.28,1.36c5.18,2.29,7.89,7,7.64,13.27C696.62,224.47,693.45,235.8,682.6,239.77Z" transform="translate(0 -139)"/><path class="cls-2" d="M869.26,193.54c-1.12-2.22-3.8-3.2-6.54-3.94-1.12-.3-2.26-.57-3.16-.76-4.37-1-4.45,1.18-6.11,5.25-.26.64-.48,1.34-.71,2-.63-.65-1.39-1.39-2.28-2.17-5-4.34-10.63-6.75-16.32-7h-1.75c-10,0-18.47,3.68-25.91,11.24a34.08,34.08,0,0,0-3.36,4.21L802,203.91c-5.21,6.92-8.71,18.84-8.71,25.63,0,16.51,9.69,28,23.57,28,13.2,0,21.6-4.65,25.54-7.54.11.43.23.93.37,1.53,1,4.19,1.67,4.67,6.27,4.67,1.59,0,6.92-.14,8.68-1.92,1-1,1.34-3.23,2.67-13.31.69-5.22,1.55-11.73,2.68-18.24,1.93-11.1,4.11-18,5.6-21.82C869.57,198.52,870.38,195.75,869.26,193.54Zm-38.13,46.37a13.41,13.41,0,0,1-4.61.78,18,18,0,0,1-10-3.11c-4.42-4-5.48-8.31-3.78-15.33A26.94,26.94,0,0,1,824,206.18a13.87,13.87,0,0,1,8.19-2.66,15.43,15.43,0,0,1,6.28,1.37c5.18,2.28,7.89,7,7.64,13.26C845.15,224.61,842,235.94,831.13,239.91Z" transform="translate(0 -139)"/><path class="cls-1" d="M452.61,254.4H437.74c-2.52,0-4-1.22-3.47-3.9,2.6-13,12.65-78.5,13.22-82.15s2.34-4.18,5.24-4.24c5.81-.1,11.63-.26,17.45-.44,2.63-.08,4.1,1.53,3.62,4.15-3.23,17.59-6.64,35.16-9.66,52.79-1.48,8.66-2.25,17.43-3.37,26.16C459.87,253.9,459,254.39,452.61,254.4Z" transform="translate(0 -139)"/><path class="cls-1" d="M513.42,187.82a3.17,3.17,0,0,1,2.4,1.66c.2.62-.8,1.72-1.44,2.46C507.89,199.61,502,206.48,495,215a4.39,4.39,0,0,0-1.21,2.55c0,1.07.68,2,1.25,3.22s9.17,18.85,13.83,28.35c1.6,3.27,1,4.74-2.54,4.79-6.95.1-13.91,0-20.84-.42-4.28-.26-4.84-4.39-6.11-7.41-2.38-5.7-9.23-22.24-10.5-25.5s-.66-5.19,1.41-7.72c5.47-6.68,11.61-15.37,15.77-20.55s5.44-5.18,9.82-5C498.75,187.38,509.22,187.58,513.42,187.82Z" transform="translate(0 -139)"/><path class="cls-1" d="M356.64,186.81c3.1,0,4.32,1.53,3.83,4.34-.73,4.19-8.48,51.36-9.61,59.3-.38,2.66-2,3.71-4.58,3.69-6.22,0-12.43,0-18.65-.1-3.49,0-4.45-1.63-3.76-5,1.52-7.36,7.93-45.95,9.83-57.83a4.77,4.77,0,0,1,4.72-4.31C340,186.8,352,186.84,356.64,186.81Z" transform="translate(0 -139)"/><path class="cls-1" d="M360,162.46c3.34-.05,4.09,1.54,3.54,4.47-.78,4.19-1.25,6.41-1.72,8.76-.38,1.84-1.58,2.57-5,2.66H341.09c-4.95,0-5.38-.81-4.86-4.33a77.88,77.88,0,0,1,1.69-8,4.61,4.61,0,0,1,4.92-3.6C346.38,162.46,357.25,162.49,360,162.46Z" transform="translate(0 -139)"/></g></g></svg>