<svg xmlns="http://www.w3.org/2000/svg" xmlns:xlink="http://www.w3.org/1999/xlink" width="176" height="246" viewBox="0 0 176 246"><defs><style>.a{fill:#fff;}.b{clip-path:url(#a);}.c,.e,.f,.g,.i{fill:none;}.d{fill:#707070;}.e{stroke:#ff8000;}.e,.f,.g,.i{stroke-width:1.025px;}.f{stroke:#707070;}.g{stroke:#ffce04;}.h{fill:#cd320a;}.i{stroke:#cd320a;}.j{stroke:none;}</style><clipPath id="a"><rect class="a" width="176" height="246"/></clipPath></defs><g class="b"><g transform="translate(7261.652 -4519.295)"><g transform="translate(-7179.726 4597.129)"><g transform="translate(7.171)"><path class="c" d="M38.391,0A38.391,38.391,0,0,1,76.782,38.391H0A38.391,38.391,0,0,1,38.391,0Z"/><path class="d" d="M38.39,1.025A37.333,37.333,0,0,0,1.038,37.366h74.7A37.333,37.333,0,0,0,38.39,1.025M38.39,0a38.391,38.391,0,0,1,38.39,38.39H0A38.39,38.39,0,0,1,38.39,0Z"/></g><g class="e" transform="translate(4.639 37.017)"><rect class="j" width="81.966" height="11.27" rx="5.635"/><rect class="c" x="0.512" y="0.512" width="80.941" height="10.246" rx="5.123"/></g><g class="f" transform="translate(4.639 54.435)"><rect class="j" width="81.966" height="11.27" rx="5.635"/><rect class="c" x="0.512" y="0.512" width="80.941" height="10.246" rx="5.123"/></g><g class="f" transform="translate(4.639 48.287)"><rect class="j" width="81.966" height="6.147"/><rect class="c" x="0.512" y="0.512" width="80.941" height="5.123"/></g><g class="f" transform="translate(4.639 65.705)"><rect class="j" width="81.966" height="7.172"/><rect class="c" x="0.512" y="0.512" width="80.941" height="6.147"/></g><g class="g" transform="translate(4.639 72.877)"><rect class="j" width="81.966" height="23.565" rx="3.074"/><rect class="c" x="0.512" y="0.512" width="80.941" height="22.541" rx="2.561"/></g><path class="f" d="M-6752.958,4328.72c-5.83,3.114-6.428,6.058-6.428,6.058h9.4l7.622-4.686s-.317,4.7,2.125,7.219,3.718,3.489,7.643,2.856,8.06-5.39,8.06-5.39l6.147-3.364,2.9,3.364a28.73,28.73,0,0,0,4.257,3.646c1.344.686,1.117-.9,7.479-6.021,0,0,5.6,7.172,11.27,7.764s11.394-5.39,11.394-5.39h3.526s4.674,3.126,7.6,2.534,4.456-2.165,4.091-4.908-5.548-6.065-5.548-6.065h-84.629Z" transform="translate(6759.386 -4254.876)"/></g><g transform="translate(-7261.651 4591.609)"><g transform="translate(2.549 40.618)"><path class="c" d="M-2.549,0H68.678l-12.4,61.425H7.933Z"/><path class="h" d="M-1.335,1.025,8.8,60.4H55.443L67.426,1.025H-1.335M-2.549,0H68.678l-12.4,61.425H7.933Z"/></g><path class="i" d="M-7117.475,4398.929l-10.582,9.682,5.553,8.175h9.6l-5.82-35.6,13.456-3.712v40.676h3l-1.043-24.108,9.747-6.1-2.337,30.21,3.564-21.745,8.057,1.143-2.521,19.244,2.521,1.358.962-1.358-.962-37.857,10.988,2.254-5.685,35.6,3.75-9.817,12.276-1.4-5.065,11.221h8.384l-1.276,3.249h-56.154Z" transform="translate(7131.107 -4377.474)"/></g></g></g></svg>