<svg xmlns="http://www.w3.org/2000/svg" width="112" height="126.11" viewBox="0 0 112 126.11">
  <g id="Group_587" data-name="Group 587" transform="translate(27.193)">
    <path id="Union_42" data-name="Union 42" d="M11.95,92.931c-1.122,0-2.034-.619-2.034-1.382V86.021a1.181,1.181,0,0,1,.534-.933H9.6a13.87,13.87,0,0,1-5.987-2.9A16.026,16.026,0,0,1,0,76.258V25.939a17.3,17.3,0,0,1,3.613-6.282,13.473,13.473,0,0,1,5.972-3.072h5.959a2.862,2.862,0,0,1-1.379-2.4v-7.4a2.764,2.764,0,0,1,.711-1.838h-4.07A2.353,2.353,0,0,1,8.6,2.468,2.346,2.346,0,0,1,10.805,0H46.149a2.353,2.353,0,0,1,2.209,2.475A2.353,2.353,0,0,1,46.149,4.95H41.784a2.763,2.763,0,0,1,.71,1.838v7.39a2.862,2.862,0,0,1-1.379,2.4h6.437a23.337,23.337,0,0,1,6.483,3.9,13.65,13.65,0,0,1,3.35,5.433l.009,26.549V76.224a13.372,13.372,0,0,1-3.357,5.965,14.807,14.807,0,0,1-6.454,2.9h-1.6a1.181,1.181,0,0,1,.534.933v5.527c0,.763-.912,1.382-2.034,1.382ZM23.512,11.839V15.19a.729.729,0,0,0,.621.786h8.393a.728.728,0,0,0,.621-.786V11.839a.728.728,0,0,0-.621-.786H24.134A.728.728,0,0,0,23.512,11.839Z" transform="translate(0 33.179)" fill="rgba(3,3,3,0.52)"/>
    <g id="Path_361" data-name="Path 361" transform="translate(18.677 0)">
      <path id="Path_465" data-name="Path 465" d="M26.172-128.971c-.047.221.04.389.183.776a11.384,11.384,0,0,0,1.151,2.2c1.263,1.786,2.916,3.392,3.832,5.839a7.377,7.377,0,0,1,.515,1.742c.059.6-.052,1.118.2,1.329.055.046.067-.088.185-.332a8.506,8.506,0,0,0,.75-2.6c.15-1.5-.15-3.136,0-3.105a.237.237,0,0,1,.214.18,3.665,3.665,0,0,0,.389.684,14.816,14.816,0,0,1,.874,1.379,9.838,9.838,0,0,1,1.313,4.917,17.169,17.169,0,0,1-.338,3.885,10.718,10.718,0,0,1-3.088,5.26,11.4,11.4,0,0,1-3.271,1.783c-.571.273-1.68.321-2.172.509H25.486a8.994,8.994,0,0,1-7.817-4.025,10.184,10.184,0,0,1-1.381-4.209,14.859,14.859,0,0,1,.145-3.6,3.828,3.828,0,0,1,.177-.832c.269-1.1.805-2.455,1.053-3.426a6.552,6.552,0,0,0,.262-1.636,4.876,4.876,0,0,0,0-.889c-.058-.353-.214-.717-.142-.924.034-.1.081-.012.142,0,.155.03.394.39.656.545a2.4,2.4,0,0,1,.44.442,4.006,4.006,0,0,1,1.015,1.691c.258.833.162,1.747.3,1.9.031.036.064-.165.162-.269a6.593,6.593,0,0,0,1.32-2.942c.2-1.081.12-2.4.248-3.577a9.109,9.109,0,0,1,.543-2.013A4.783,4.783,0,0,1,23.733-130a6.661,6.661,0,0,1,.994-1.041,3.48,3.48,0,0,1,1.267-.695c.094-.016.487-.361.5-.155C25.993-131.255,25.818-128.971,26.172-128.971Z" transform="translate(-16.226 131.961)" fill="none"/>
      <path id="Path_466" data-name="Path 466" d="M24.909-129.739l-.112.131c-.086.1-.174.2-.269.313l-.09.1a3.507,3.507,0,0,0-.825,1.252l-.077.224a7.064,7.064,0,0,0-.414,1.559c-.05.455-.065.942-.081,1.458a14.5,14.5,0,0,1-.18,2.2,7.79,7.79,0,0,1-1.507,3.383,1.09,1.09,0,0,1-1.019.7,1.079,1.079,0,0,1-.816-.373,1.88,1.88,0,0,1-.355-1.206,4.92,4.92,0,0,0-.157-1.082c-.029-.095-.06-.182-.092-.263-.059.363-.14.682-.208.945l-.008.032c-.125.491-.308,1.039-.5,1.619-.2.615-.416,1.252-.55,1.8-.027.112-.056.214-.082.3a2.286,2.286,0,0,0-.069.279v.063l-.007.062-.006.053a13.823,13.823,0,0,0-.14,3.28,9.116,9.116,0,0,0,1.218,3.771,7.347,7.347,0,0,0,2.938,2.641,8.81,8.81,0,0,0,3.977.891h1.247a8.131,8.131,0,0,1,.895-.182,5.2,5.2,0,0,0,.989-.223c.3-.145.606-.274.9-.4A6.733,6.733,0,0,0,31.6-107.6a9.682,9.682,0,0,0,2.787-4.733,16.325,16.325,0,0,0,.309-3.636,8.544,8.544,0,0,0-.716-3.468,9.817,9.817,0,0,1-.785,2.476c-.024.051-.042.095-.06.142a1.121,1.121,0,0,1-1.071.807,1.1,1.1,0,0,1-.71-.261,1.928,1.928,0,0,1-.557-1.6c0-.148,0-.3-.017-.445a6.458,6.458,0,0,0-.43-1.413l-.022-.059a15.27,15.27,0,0,0-2.562-4.1c-.382-.484-.777-.985-1.141-1.5a12.337,12.337,0,0,1-1.281-2.441l-.056-.149a3.138,3.138,0,0,1-.183-.607l0-.009a2.677,2.677,0,0,1-.193-1.153m1.518-2.223c.034,0,.057.018.059.065-.5.641-.675,2.927-.319,2.927-.047.221.039.389.183.777A11.385,11.385,0,0,0,27.5-126c1.263,1.786,2.915,3.392,3.832,5.839a7.377,7.377,0,0,1,.515,1.743c.059.6-.053,1.117.2,1.329a.032.032,0,0,0,.02.009c.04,0,.063-.129.165-.341a8.507,8.507,0,0,0,.75-2.6c.149-1.482-.145-3.107,0-3.108h0a.236.236,0,0,1,.217.18,3.664,3.664,0,0,0,.389.684,14.818,14.818,0,0,1,.874,1.379,9.838,9.838,0,0,1,1.309,4.917,17.169,17.169,0,0,1-.338,3.885,10.718,10.718,0,0,1-3.089,5.259,11.4,11.4,0,0,1-3.271,1.783c-.571.273-1.68.321-2.172.509l-.431,0-.99,0a9,9,0,0,1-7.816-4.025,10.184,10.184,0,0,1-1.378-4.209,14.859,14.859,0,0,1,.144-3.6,3.828,3.828,0,0,1,.181-.836c.269-1.1.8-2.455,1.053-3.427a6.552,6.552,0,0,0,.262-1.637,4.876,4.876,0,0,0,0-.889c-.058-.354-.215-.717-.142-.924.012-.034.026-.046.041-.046s.062.038.1.046c.155.03.394.389.656.545a2.4,2.4,0,0,1,.44.442,4.006,4.006,0,0,1,1.009,1.7c.258.833.162,1.747.3,1.9a.01.01,0,0,0,.007,0c.029,0,.064-.177.154-.273a6.593,6.593,0,0,0,1.32-2.942c.2-1.081.12-2.4.248-3.577a9.109,9.109,0,0,1,.543-2.014,4.784,4.784,0,0,1,1.127-1.716,6.661,6.661,0,0,1,.993-1.041,3.48,3.48,0,0,1,1.267-.7C26.059-131.754,26.31-131.962,26.426-131.962Z" transform="translate(-16.221 131.962)" fill="#cd320a"/>
    </g>
    <g id="Path_362" data-name="Path 362" transform="translate(23.085 12.474)">
      <path id="Path_467" data-name="Path 467" d="M21.651-130.331c-.026.12.021.214.1.428a6.21,6.21,0,0,0,.629,1.2,15.377,15.377,0,0,0,2.142,2.034l.249.364c.85,1.244,1.5,1.392,1.5,3.3a8.188,8.188,0,0,1-1.482,4.357c-.759,1.433-.814,1.186-1.417,1.474a5.415,5.415,0,0,1-1.326.176h-.769a4.908,4.908,0,0,1-4.265-2.2,5.557,5.557,0,0,1-.75-2.3,8.108,8.108,0,0,1,.078-1.963,2.089,2.089,0,0,1,.1-.456c.147-.6.439-1.34.575-1.871a3.574,3.574,0,0,0,.143-.893,2.66,2.66,0,0,0,0-.485c-.031-.193-.118-.391-.077-.5.018-.052.045-.006.077,0,.085.016.214.214.358.3a1.312,1.312,0,0,1,.24.241,2.185,2.185,0,0,1,.55.926c.14.454.088.953.163,1.038.017.019.034-.09.088-.147a3.6,3.6,0,0,0,.721-1.606c.107-.59.065-1.312.136-1.952a4.971,4.971,0,0,1,.3-1.1,2.61,2.61,0,0,1,.615-.937,3.634,3.634,0,0,1,.542-.567,1.9,1.9,0,0,1,.691-.379c.051-.009.266-.2.272-.085C21.554-131.578,21.457-130.331,21.651-130.331Z" transform="translate(-16.225 131.965)" fill="none"/>
      <path id="Path_468" data-name="Path 468" d="M20.714-129.611h0l-.043.124a3.45,3.45,0,0,0-.2.744c-.025.23-.033.486-.042.758a8.275,8.275,0,0,1-.106,1.276,4.788,4.788,0,0,1-.888,2.021,1.086,1.086,0,0,1-.969.606l-.5,0L17.7-124.4c-.087.264-.17.525-.225.749-.016.064-.033.125-.049.183l-.019.069v.013l-.007.062,0,.029a7.227,7.227,0,0,0-.077,1.669,4.511,4.511,0,0,0,.592,1.859,3.824,3.824,0,0,0,3.364,1.7h.76a5.9,5.9,0,0,0,.915-.088c.139-.065.254-.108.339-.14l.064-.024a5.538,5.538,0,0,0,.493-.829c.11-.207.218-.4.322-.593A6.022,6.022,0,0,0,25.2-123a2.215,2.215,0,0,0-.662-1.853c-.192-.233-.41-.5-.65-.848l-.16-.234A14.632,14.632,0,0,1,21.5-128.09a7.3,7.3,0,0,1-.758-1.444l-.029-.077h0m1.075-2.351c.019,0,.031.01.032.035-.272.35-.368,1.6-.174,1.6-.026.12.021.212.1.424a6.211,6.211,0,0,0,.628,1.2,15.377,15.377,0,0,0,2.146,2.039l.249.365c.85,1.244,1.495,1.389,1.5,3.3s-.722,2.924-1.481,4.356-.814,1.186-1.416,1.475a5.416,5.416,0,0,1-1.325.176h-.775a4.908,4.908,0,0,1-4.265-2.2,5.557,5.557,0,0,1-.752-2.3,8.107,8.107,0,0,1,.079-1.963,2.089,2.089,0,0,1,.1-.456c.147-.6.439-1.34.575-1.87a3.574,3.574,0,0,0,.143-.893,2.66,2.66,0,0,0,0-.485c-.031-.193-.117-.391-.078-.5.007-.019.014-.025.023-.025s.034.021.055.025c.085.016.215.212.358.3a1.311,1.311,0,0,1,.24.241,2.186,2.186,0,0,1,.551.926c.141.454.088.953.162,1.038l0,0c.016,0,.035-.1.084-.149a3.6,3.6,0,0,0,.72-1.605c.111-.59.066-1.312.136-1.952a4.971,4.971,0,0,1,.3-1.1,2.61,2.61,0,0,1,.615-.936,3.633,3.633,0,0,1,.542-.568,1.9,1.9,0,0,1,.691-.379C21.589-131.849,21.726-131.962,21.789-131.962Z" transform="translate(-16.221 131.964)" fill="#cd320a"/>
    </g>
    <path id="Path_372" data-name="Path 372" d="M-10584.3,7085.266h35.74" transform="translate(10595.142 -6966.859)" fill="none" stroke="#cd320a" stroke-width="1.51"/>
    <rect id="Rectangle_1521" data-name="Rectangle 1521" width="21" height="24" transform="translate(63.807 75)" fill="none"/>
    <path id="Path_565" data-name="Path 565" d="M0,0H21V24H0Z" transform="translate(-27.193 75)" fill="none"/>
  </g>
</svg>
