<svg xmlns="http://www.w3.org/2000/svg" width="103.836" height="121.541" viewBox="0 0 103.836 121.541">
  <g id="Group_892" data-name="Group 892" transform="translate(6276.03 -13044.119)">
    <g id="Union_47" data-name="Union 47" transform="translate(-6276.03 13080.96)" fill="none">
      <path d="M52.162,84.7l.046-.212H0L15.824,0H67.957L75.1,39.363H94.325L103.837,84.7Z" stroke="none"/>
      <path d="M 98.91035461425781 80.69990539550781 L 91.07748413085938 43.36330413818359 L 75.09933471679688 43.36330413818359 L 71.75978088378906 43.36330413818359 L 71.16359710693359 40.0774040222168 L 64.61766815185547 4.000002861022949 L 19.14418601989746 4.000002861022949 L 4.818703174591064 80.4884033203125 L 52.20800018310547 80.4884033203125 L 57.16690063476562 80.4884033203125 L 57.12110137939453 80.69990539550781 L 98.91035461425781 80.69990539550781 M 103.8366012573242 84.69990539550781 L 52.16220092773438 84.69990539550781 L 52.20800018310547 84.4884033203125 L 6.286621214712795e-07 84.4884033203125 L 15.82380104064941 2.697753870961606e-06 L 67.95719909667969 2.697753870961606e-06 L 75.09933471679688 39.36330413818359 L 94.32540130615234 39.36330413818359 L 103.8366012573242 84.69990539550781 Z" stroke="none" fill="#ffce04"/>
    </g>
    <path id="Path_330" data-name="Path 330" d="M-7863.832,3832.381l-7.192-16.252s-11.376-21.134,0-26.3,28.718-7.013,37.262,2.9-11.323,39.651-11.323,39.651" transform="translate(1620.977 9260)" fill="none" stroke="#cd320a" stroke-width="3"/>
    <g id="Ellipse_38" data-name="Ellipse 38" transform="translate(-6244.342 13096.219)" fill="none" stroke="#707070" stroke-width="1">
      <ellipse cx="1.615" cy="1.615" rx="1.615" ry="1.615" stroke="none"/>
      <ellipse cx="1.615" cy="1.615" rx="1.115" ry="1.115" fill="none"/>
    </g>
    <g id="Ellipse_39" data-name="Ellipse 39" transform="translate(-6225.503 13095.648)" fill="none" stroke="#707070" stroke-width="1">
      <ellipse cx="1.346" cy="1.884" rx="1.346" ry="1.884" stroke="none"/>
      <ellipse cx="1.346" cy="1.884" rx="0.846" ry="1.384" fill="none"/>
    </g>
    <g id="Path_561" data-name="Path 561" transform="translate(-6096.995 13120.323)" fill="none">
      <path d="M-117.054,0h32.346L-75.2,45.336h-51.674Z" stroke="none"/>
      <path d="M -113.8279647827148 3.999996185302734 L -121.9131546020508 41.33629608154297 L -80.12445831298828 41.33629608154297 L -87.95682525634766 3.999996185302734 L -113.8279647827148 3.999996185302734 M -117.0544815063477 -3.814697265625e-06 L -84.70886993408203 -3.814697265625e-06 L -75.19827270507812 45.33629608154297 L -126.8720703125 45.33629608154297 L -117.0544815063477 -3.814697265625e-06 Z" stroke="none" fill="#ffce04"/>
    </g>
    <path id="Path_562" data-name="Path 562" d="M-7868.481,3814.633l-4.462-10.083s-7.059-13.113,0-16.316,17.817-4.351,23.119,1.8-7.026,24.6-7.026,24.6" transform="translate(1667.346 9314.243)" fill="none" stroke="#cd320a" stroke-width="3"/>
    <g id="Ellipse_46" data-name="Ellipse 46" transform="translate(-6201.887 13129.872)" fill="none" stroke="#707070" stroke-width="1">
      <ellipse cx="0.807" cy="1.077" rx="0.807" ry="1.077" stroke="none"/>
      <ellipse cx="0.807" cy="1.077" rx="0.307" ry="0.577" fill="none"/>
    </g>
    <g id="Ellipse_47" data-name="Ellipse 47" transform="translate(-6191.583 13128.872)" fill="none" stroke="#707070" stroke-width="1">
      <ellipse cx="1.077" cy="1.077" rx="1.077" ry="1.077" stroke="none"/>
      <ellipse cx="1.077" cy="1.077" rx="0.577" ry="0.577" fill="none"/>
    </g>
  </g>
</svg>
