<svg xmlns="http://www.w3.org/2000/svg" width="101.788" height="128.247" viewBox="0 0 101.788 128.247">
  <g id="Group_883" data-name="Group 883" transform="matrix(0.999, 0.035, -0.035, 0.999, 7147.491, -4512.741)">
    <g id="Group_585" data-name="Group 585" transform="translate(-6980.782 4759.626)">
      <path id="Path_363" data-name="Path 363" d="M-7662.109,4050.451h2.362s1.477-14.636,4.308-21.174c1.67-3.857,4.777-6.839,7.7-9.868s3.982-2.7,3.982-2.7,6.982-2.1,6.567,5.282-2.942,11.356-2.942,11.356a29.674,29.674,0,0,1-3.625,7.65,93.726,93.726,0,0,1-7.35,9.449h7.35a28.916,28.916,0,0,0,11.081-4.647c5.127-3.708,5.886-4.289,9.373-8.947a13.239,13.239,0,0,0,2.48-4.766s1.591-2.355,1.229-4.158c-.905-4.508-2.478-5.481-7.332-9.11a57.047,57.047,0,0,0-11.217-6.166s-6.6-1.167-10.606,3.082a82.733,82.733,0,0,0-6.687,8.029s-4.886,10.654-5.974,15.4S-7662.771,4043.188-7662.109,4050.451Z" transform="translate(7714.328 -4012.51)" fill="none" stroke="#707070" stroke-width="1"/>
      <path id="Path_364" data-name="Path 364" d="M-7618.172,4050.451h-2.458s-1.537-14.636-4.482-21.174c-1.738-3.857-4.972-6.839-8.011-9.868s-4.144-2.7-4.144-2.7-7.267-2.1-6.834,5.282,3.063,11.356,3.063,11.356a29.117,29.117,0,0,0,3.771,7.65,94.438,94.438,0,0,0,7.648,9.449h-7.648a30.827,30.827,0,0,1-11.531-4.647c-5.335-3.708-6.125-4.289-9.753-8.947a13.025,13.025,0,0,1-2.581-4.766s-1.657-2.355-1.279-4.158c.942-4.508,2.579-5.481,7.629-9.11a60.218,60.218,0,0,1,11.673-6.166s6.863-1.167,11.038,3.082a83.63,83.63,0,0,1,6.959,8.029s5.084,10.654,6.217,15.4S-7617.482,4043.188-7618.172,4050.451Z" transform="translate(7667.37 -4012.51)" fill="none" stroke="#707070" stroke-width="1"/>
      <path id="Path_367" data-name="Path 367" d="M-6891.782,4740.1h36.548s3,0,4.44,1.074a4.137,4.137,0,0,1,1.316,3.242v61.7a5.776,5.776,0,0,1-.992,3.549,5.668,5.668,0,0,1-3.417,1.314h-37.9Z" transform="translate(6947.8 -4686.964)" fill="none" stroke="#707070" stroke-width="1"/>
      <path id="Path_369" data-name="Path 369" d="M0,0H12.791a1.8,1.8,0,0,1,1.554,1.074,9.681,9.681,0,0,1,.461,3.242v61.7a14.942,14.942,0,0,1-.347,3.549c-.386,1.215-1.2,1.314-1.2,1.314H0Z" transform="translate(14.361 52.947) rotate(-90)" fill="none" stroke="#707070" stroke-width="1"/>
      <path id="Path_368" data-name="Path 368" d="M-6849.133,4740.1h-36.843s-3.025,0-4.476,1.074a4.113,4.113,0,0,0-1.327,3.242v61.7a5.745,5.745,0,0,0,1,3.549,5.745,5.745,0,0,0,3.445,1.314h38.2Z" transform="translate(6891.782 -4686.964)" fill="none" stroke="#707070" stroke-width="1"/>
      <path id="Path_370" data-name="Path 370" d="M-6913.782,4954.444h13.4" transform="translate(6956.432 -4830.43)" fill="none" stroke="#707070" stroke-width="1"/>
    </g>
  </g>
</svg>
