<svg xmlns="http://www.w3.org/2000/svg" width="103.102" height="135.733" viewBox="0 0 103.102 135.733">
  <g id="Group_890" data-name="Group 890" transform="translate(6287.883 -13441.996)">
    <path id="Subtraction_5" data-name="Subtraction 5" d="M19.522,41.863A20.716,20.716,0,0,1,6.127,7.012a20.837,20.837,0,0,1,6.15-4.5A20.676,20.676,0,0,1,19.522.539Zm3.7-.017V.556a20.724,20.724,0,0,1,13.265,34.77,20.841,20.841,0,0,1-6.09,4.511,20.672,20.672,0,0,1-7.175,2.01Z" transform="translate(-6257.808 13517.655) rotate(45)" fill="none" stroke="#707070" stroke-width="1"/>
    <g id="Group_589" data-name="Group 589" transform="translate(-6220.567 13511.798)">
      <path id="Path_379" data-name="Path 379" d="M-7335.438,4614c5.388,0,10.188,7.7,10.7,10.224s.5,35.093,0,37.315-5.311,10.164-10.7,10.164-10.275-7.664-10.847-10.164c-.009-.04-.019-.088-.04-.224-.534-3.3-.592-34.324.04-37.091C-7345.644,4621.411-7340.824,4614-7335.438,4614Z" transform="translate(7346.743 -4614)" fill="none" stroke="#707070" stroke-width="1"/>
      <path id="Path_380" data-name="Path 380" d="M-7346.742,4700.187h22.37" transform="translate(7346.742 -4671.296)" fill="none" stroke="#707070" stroke-width="1"/>
    </g>
    <path id="Union_44" data-name="Union 44" d="M15.386,27.5H10.732V16.368H.5V11.631H10.732V.5h4.654V11.631H25.5v4.737H15.386V27.5Z" transform="translate(-6250 13498)" fill="none" stroke="#cd320a" stroke-width="1"/>
    <path id="Path_381" data-name="Path 381" d="M106.329,0H14.475S6.933-.007,3.317,1.548.008,6.217.008,6.217V95.1A5.832,5.832,0,0,0,2.5,100.208c2.769,1.751,8.587,1.894,8.587,1.894h95.241Z" transform="translate(-6287.383 13571.492) rotate(-90)" fill="none" stroke="#707070" stroke-width="1"/>
    <path id="Path_382" data-name="Path 382" d="M22.921,0H3.121A2.828,2.828,0,0,0,.715,1.548,13.031,13.031,0,0,0,0,6.217V95.1a20.048,20.048,0,0,0,.538,5.112c.6,1.751,1.851,1.894,1.851,1.894H22.921Z" transform="translate(-6185.281 13442.5) rotate(90)" fill="none" stroke="#707070" stroke-width="1"/>
  </g>
</svg>
