<svg xmlns="http://www.w3.org/2000/svg" width="103.488" height="136.209" viewBox="0 0 103.488 136.209">
  <g id="Group_893" data-name="Group 893" transform="translate(6264.27 -13580.996)">
    <ellipse id="Ellipse_48" data-name="Ellipse 48" cx="21.097" cy="21.056" rx="21.097" ry="21.056" transform="translate(-6233.785 13656.884) rotate(45)" fill="none" stroke="#707070" stroke-width="1"/>
    <rect id="Rectangle_1517" data-name="Rectangle 1517" width="3.055" height="42.112" transform="translate(-6219.879 13670.789) rotate(45)" fill="none" stroke="#707070" stroke-width="1"/>
    <path id="Path_379" data-name="Path 379" d="M-7335.438,4614c5.388,0,10.188,7.7,10.7,10.224s.5,35.093,0,37.315-5.311,10.164-10.7,10.164-10.275-7.664-10.847-10.164c-.009-.04-.019-.088-.04-.224-.534-3.3-.592-34.324.04-37.091C-7345.644,4621.411-7340.824,4614-7335.438,4614Z" transform="translate(1150.176 9036.798)" fill="none" stroke="#707070" stroke-width="1"/>
    <path id="Path_380" data-name="Path 380" d="M-7346.742,4700.187h22.37" transform="translate(1150.175 8979.502)" fill="none" stroke="#707070" stroke-width="1"/>
    <rect id="Rectangle_1518" data-name="Rectangle 1518" width="5.175" height="27.529" transform="translate(-6215.528 13637.235)" fill="none" stroke="#cd320a" stroke-width="1"/>
    <rect id="Rectangle_1519" data-name="Rectangle 1519" width="5.266" height="25.521" transform="translate(-6200.24 13648.367) rotate(90)" fill="none" stroke="#cd320a" stroke-width="1"/>
    <path id="Path_563" data-name="Path 563" d="M106.329,0H14.475S6.933-.007,3.317,1.548.008,6.217.008,6.217V95.1A5.832,5.832,0,0,0,2.5,100.208c2.769,1.751,8.587,1.894,8.587,1.894h95.241Z" transform="translate(-6263.383 13710.492) rotate(-90)" fill="none" stroke="#707070" stroke-width="1"/>
    <path id="Path_564" data-name="Path 564" d="M22.921,0H3.121A2.828,2.828,0,0,0,.715,1.548,13.031,13.031,0,0,0,0,6.217V95.1a20.048,20.048,0,0,0,.538,5.112c.6,1.751,1.851,1.894,1.851,1.894H22.921Z" transform="translate(-6161.281 13581.5) rotate(90)" fill="none" stroke="#707070" stroke-width="1"/>
  </g>
</svg>
