<svg xmlns="http://www.w3.org/2000/svg" width="114.942" height="103.043" viewBox="0 0 114.942 103.043">
  <g id="Group_891" data-name="Group 891" transform="translate(6278.488 -13187.957)">
    <g id="Group_889" data-name="Group 889" transform="translate(0 -5.819)">
      <g id="Group_567" data-name="Group 567" transform="translate(-6230.924 13228.248)">
        <g id="Path_325" data-name="Path 325" transform="translate(5.126)" fill="none">
          <path d="M27.443,0A27.443,27.443,0,0,1,54.887,27.443H0A27.443,27.443,0,0,1,27.443,0Z" stroke="none"/>
          <path d="M 27.44326972961426 0.9999942779541016 C 23.87301063537598 0.9999942779541016 20.41007995605469 1.699014663696289 17.15066146850586 3.077625274658203 C 14.00193786621094 4.409425735473633 11.17388153076172 6.316225051879883 8.745048522949219 8.745044708251953 C 6.316230773925781 11.17387580871582 4.409431457519531 14.00193500518799 3.077629089355469 17.15065383911133 C 1.828094482421875 20.10490226745605 1.136856079101562 23.22626113891602 1.01837158203125 26.44326400756836 L 25.89958000183105 26.44326400756836 L 53.86816787719727 26.44326400756836 C 53.74968338012695 23.22626113891602 53.05844497680664 20.10490226745605 51.80891036987305 17.15065383911133 C 50.47711181640625 14.00193500518799 48.57030868530273 11.17387580871582 46.1414909362793 8.745044708251953 C 43.71266174316406 6.316225051879883 40.88459777832031 4.409425735473633 37.73587799072266 3.077625274658203 C 34.47645950317383 1.699014663696289 31.01352882385254 0.9999942779541016 27.44326972961426 0.9999942779541016 M 27.44326972961426 -5.7220458984375e-06 C 42.59976959228516 -5.7220458984375e-06 54.88653945922852 12.28676509857178 54.88653945922852 27.44326400756836 L 25.89958000183105 27.44326400756836 L 0 27.44326400756836 C 0 12.28676509857178 12.28676986694336 -5.7220458984375e-06 27.44326972961426 -5.7220458984375e-06 Z" stroke="none" fill="#707070"/>
        </g>
        <g id="Rectangle_1478" data-name="Rectangle 1478" transform="translate(3.924 26.571)" fill="none" stroke="#ff8000" stroke-width="1">
          <rect width="58" height="8" rx="4" stroke="none"/>
          <rect x="0.5" y="0.5" width="57" height="7" rx="3.5" fill="none"/>
        </g>
        <g id="Rectangle_1480" data-name="Rectangle 1480" transform="translate(3.924 38.571)" fill="none" stroke="#707070" stroke-width="1">
          <rect width="58" height="9" rx="4.5" stroke="none"/>
          <rect x="0.5" y="0.5" width="57" height="8" rx="4" fill="none"/>
        </g>
        <g id="Rectangle_1479" data-name="Rectangle 1479" transform="translate(3.924 34.571)" fill="none" stroke="#707070" stroke-width="1">
          <rect width="58" height="4" stroke="none"/>
          <rect x="0.5" y="0.5" width="57" height="3" fill="none"/>
        </g>
        <g id="Rectangle_1481" data-name="Rectangle 1481" transform="translate(3.924 47.571)" fill="none" stroke="#707070" stroke-width="1">
          <rect width="58" height="5" stroke="none"/>
          <rect x="0.5" y="0.5" width="57" height="4" fill="none"/>
        </g>
        <g id="Rectangle_1482" data-name="Rectangle 1482" transform="translate(3.924 52.571)" fill="none" stroke="#ffce04" stroke-width="1">
          <rect width="58" height="16" rx="3" stroke="none"/>
          <rect x="0.5" y="0.5" width="57" height="15" rx="2.5" fill="none"/>
        </g>
        <path id="Path_326" data-name="Path 326" d="M-6592.674,4224.279c-4.167,2.226-4.6,4.33-4.6,4.33h6.719l5.449-3.349s-.227,3.36,1.519,5.161,2.658,2.495,5.464,2.042,5.761-3.854,5.761-3.854l4.393-2.4,2.069,2.4a20.5,20.5,0,0,0,3.044,2.607c.96.491.8-.643,5.346-4.3,0,0,4,5.126,8.053,5.551s8.145-3.854,8.145-3.854h2.522s3.34,2.235,5.429,1.812,3.185-1.548,2.925-3.509-3.966-4.335-3.966-4.335h-60.5Z" transform="translate(6597.27 -4171.491)" fill="none" stroke="#707070" stroke-width="1"/>
      </g>
      <g id="Group_568" data-name="Group 568" transform="translate(-6278.488 13194.484)">
        <g id="Path_327" data-name="Path 327" transform="translate(2.488 39.245)" fill="none">
          <path d="M-2.488,0H48.429L39.567,63.09H5.006Z" stroke="none"/>
          <path d="M -1.361991882324219 1 L 5.893764495849609 62.08989715576172 L 38.697509765625 62.08989715576172 L 47.27822875976562 1 L -1.361991882324219 1 M -2.48779296875 0 L 48.42850875854492 0 L 39.56686782836914 63.08989715576172 L 5.005508422851562 63.08989715576172 L -2.48779296875 0 Z" stroke="none" fill="#cd320a"/>
        </g>
        <path id="Path_328" data-name="Path 328" d="M-6949.532,4292.267l-7.565,8.928,4.374,10.535,3.486-3h2.972l-4.16-32.827,9.619-3.422v37.5h2.146l-.746-22.229,6.967-5.627-1.67,27.856,2.548-20.05,5.76,1.054-1.8,17.744,1.8,1.252.688-1.252-.687-34.906,7.854,2.08-4.064,32.827,2.681-9.052,8.776-1.295-3.621,10.347h5.993l-.913,3h-40.141Z" transform="translate(6959.277 -4272.484)" fill="none" stroke="#cd320a" stroke-width="1"/>
      </g>
    </g>
  </g>
</svg>
