<svg xmlns="http://www.w3.org/2000/svg" xmlns:xlink="http://www.w3.org/1999/xlink" width="176" height="246" viewBox="0 0 176 246"><defs><style>.a{fill:#fff;}.b{clip-path:url(#a);}.c,.e{fill:none;}.d{fill:#707070;}.e{stroke:#707070;stroke-width:0.736px;}.f{fill:#cd320a;}</style><clipPath id="a"><rect class="a" width="176" height="246"/></clipPath></defs><g class="b"><g transform="translate(5424.408 -3897.559)"><g transform="translate(-5303.708 4002.24) rotate(45)"><path class="c" d="M26.765,57.3h0a28.713,28.713,0,0,1,0-57.3Zm4.161-.019V.018a28.713,28.713,0,0,1,0,57.26Z"/><path class="d" d="M26.029,56.5V.8a27.976,27.976,0,0,0,0,55.7m5.63-.026a27.977,27.977,0,0,0,0-55.649V56.473m-4.894.824h0a28.713,28.713,0,0,1,0-57.3Zm4.158-.019V.019a28.713,28.713,0,0,1,0,57.261Z"/></g><g transform="translate(-5271.763 4006.551)"><path class="e" d="M-5397.968,3397.4c5.532,0,10.462,7.906,10.987,10.5s.516,36.043,0,38.323-5.456,10.44-10.987,10.44-10.554-7.871-11.141-10.44c-.01-.041-.018-.09-.041-.229-.549-3.387-.608-35.251.041-38.094C-5408.45,3405.007-5403.5,3397.4-5397.968,3397.4Z" transform="translate(5409.578 -3397.396)"/><path class="e" d="M-5409.578,3460.857h22.973" transform="translate(5409.578 -3431.186)"/></g><g transform="translate(-5400.932 3996.763)"><path class="c" d="M17.417,45.652V27.192H0V18.459H17.417V0h8.809V18.459H43.443v8.734H26.226v18.46Z"/><path class="f" d="M25.49,44.916V26.456H42.707V19.2H25.49V.736H18.154V19.2H.736v7.261H18.154V44.916H25.49m.736.736H17.417V27.193H0V18.459H17.417V0h8.809V18.459H43.443v8.733H26.226Z"/></g><path class="e" d="M93.153,0H12.682S6.075-.006,2.906,1.356a4.243,4.243,0,0,0-2.9,4.093V83.311A5.109,5.109,0,0,0,2.191,87.79c2.426,1.534,7.523,1.659,7.523,1.659H93.153Z" transform="translate(-5424.04 4071.114) rotate(-90)"/><path class="e" d="M20.08,0H2.734A2.478,2.478,0,0,0,.627,1.356,11.438,11.438,0,0,0,0,5.449V83.311A17.563,17.563,0,0,0,.471,87.79c.523,1.534,1.62,1.659,1.62,1.659H20.08Z" transform="translate(-5334.591 3958.105) rotate(90)"/></g></g></svg>