<svg xmlns="http://www.w3.org/2000/svg" xmlns:xlink="http://www.w3.org/1999/xlink" width="176" height="246" viewBox="0 0 176 246"><defs><style>.a,.c{fill:none;stroke:#cd320a;}.b{clip-path:url(#a);}.c{stroke-width:1.729px;}</style><clipPath id="a"><rect class="a" width="176" height="246"/></clipPath></defs><g class="b"><g transform="translate(12363.568 -7810.74) rotate(2.007)"><g transform="translate(-12069.969 8237.758)"><path class="c" d="M-13248.184,6983.066h2.821s1.766-17.487,5.147-25.3c2-4.608,5.708-8.171,9.2-11.79s4.758-3.226,4.758-3.226,8.341-2.509,7.846,6.311-3.515,13.568-3.515,13.568a35.467,35.467,0,0,1-4.332,9.14,111.955,111.955,0,0,1-8.781,11.289h8.782a34.546,34.546,0,0,0,13.24-5.552c6.124-4.431,7.031-5.125,11.2-10.69a15.817,15.817,0,0,0,2.965-5.694s1.9-2.814,1.467-4.968c-1.081-5.386-2.961-6.548-8.761-10.885a68.218,68.218,0,0,0-13.4-7.366s-7.885-1.4-12.67,3.682a98.676,98.676,0,0,0-7.989,9.593s-5.839,12.729-7.139,18.4S-13248.976,6974.389-13248.184,6983.066Z" transform="translate(13335.462 -6917.457)"/><path class="c" d="M-13195.166,6983.515h-2.966s-1.854-17.66-5.407-25.549c-2.1-4.653-6-8.252-9.666-11.907s-5-3.257-5-3.257-8.769-2.534-8.246,6.373,3.7,13.7,3.7,13.7a35.094,35.094,0,0,0,4.55,9.23,114.086,114.086,0,0,0,9.229,11.4h-9.229a37.175,37.175,0,0,1-13.914-5.606c-6.436-4.475-7.389-5.176-11.767-10.8a15.709,15.709,0,0,1-3.115-5.75s-2-2.842-1.543-5.018c1.137-5.439,3.112-6.613,9.206-10.992a72.654,72.654,0,0,1,14.085-7.44s8.279-1.408,13.318,3.719a101.234,101.234,0,0,1,8.4,9.688s6.135,12.855,7.5,18.581S-13194.333,6974.751-13195.166,6983.515Z" transform="translate(13280.434 -6917.906)"/><path class="c" d="M-11916.08,8195.761h48.127s3.949,0,5.846,1.414a5.453,5.453,0,0,1,1.734,4.27l0,81.246a7.614,7.614,0,0,1-1.307,4.674,7.464,7.464,0,0,1-4.5,1.729h-49.906Z" transform="translate(12008.818 -8105.527)"/><path class="c" d="M0,0H17.253a2.427,2.427,0,0,1,2.1,1.415,12.484,12.484,0,0,1,.622,4.272v81.3a19.252,19.252,0,0,1-.468,4.677c-.521,1.6-1.619,1.732-1.619,1.732H0Z" transform="translate(40.829 87.499) rotate(-90)"/><path class="c" d="M-11858.722,8195.761h-49.549s-4.068,0-6.021,1.445a5.533,5.533,0,0,0-1.785,4.359v82.979a7.74,7.74,0,0,0,1.346,4.773,7.732,7.732,0,0,0,4.633,1.768h51.374Z" transform="translate(11947.271 -8105.079)"/><path class="c" d="M-11954.116,8566.367h23.169" transform="translate(12027.815 -8500.194)"/></g></g></g></svg>